<svg xmlns="http://www.w3.org/2000/svg" viewBox="0 0 17.58 4.29"><defs><style>.cls-1{fill:#fff;}</style></defs><g id="Layer_2" data-name="Layer 2"><g id="logoipsum"><path class="cls-1" d="M4.27,1.42A1.42,1.42,0,0,0,2.85,0a1.44,1.44,0,0,0-1,.46H0v3.8H3.8V2.48A1.42,1.42,0,0,0,4.27,1.42Zm-.73,0A.7.7,0,1,1,2.85.73h0A.69.69,0,0,1,3.54,1.42ZM3.07,3.53H.73V1.19h.71a2,2,0,0,0,0,.23A1.43,1.43,0,0,0,2.85,2.85l.22,0Z"/><path class="cls-1" d="M5.29.46h.58v3.8H5.29Z"/><path class="cls-1" d="M6.52.46h.75l.36,1.47a4.3,4.3,0,0,1,.09.47c0,.14,0,.28.07.41h0l.06-.41A4.3,4.3,0,0,1,8,1.93L8.34.46h.73v3.8H8.53V3c0-.19,0-.38,0-.55s0-.34,0-.49,0-.28,0-.4,0-.2,0-.27h0L8,3.77H7.61L7,1.29H7a1.87,1.87,0,0,1,0,.27c0,.12,0,.25,0,.4s0,.31,0,.49V4.26H6.52Z"/><path class="cls-1" d="M10.14.46h.66l.7,3.8h-.58l-.1-.68h-.7l-.1.68H9.44Zm.61,2.68-.27-1.89h0l-.27,1.89Z"/><path class="cls-1" d="M12.64,4.29h-.16a.64.64,0,0,1-.18-.06,1.07,1.07,0,0,1-.19-.13A1,1,0,0,1,12,3.86a1.3,1.3,0,0,1-.12-.35,2.31,2.31,0,0,1,0-.49V1.68a1.76,1.76,0,0,1,.05-.49A1.43,1.43,0,0,1,12,.84a.79.79,0,0,1,.18-.22A1.13,1.13,0,0,1,12.35.5a.83.83,0,0,1,.21-.06h.2a1.07,1.07,0,0,1,.39.06.69.69,0,0,1,.26.17.66.66,0,0,1,.14.26,1.06,1.06,0,0,1,0,.31,1.64,1.64,0,0,1,0,.23c0,.07,0,.14,0,.23h-.46V1.51q0-.63-.33-.63a.38.38,0,0,0-.16,0,.23.23,0,0,0-.11.11.66.66,0,0,0-.07.2,2.36,2.36,0,0,0,0,.3V3.24a2.36,2.36,0,0,0,0,.3.61.61,0,0,0,.07.18.23.23,0,0,0,.11.11.33.33,0,0,0,.15,0,.31.31,0,0,0,.17,0A.53.53,0,0,0,13,3.67a1,1,0,0,0,.07-.21,1.81,1.81,0,0,0,0-.25v-.5h-.3V2.34h.86V4.26h-.38l-.07-.36a.69.69,0,0,1-.25.3A.58.58,0,0,1,12.64,4.29Z"/><path class="cls-1" d="M14.2.46h1.41V.91h-.84V2.05h.65V2.5h-.65V3.8h.86v.46H14.2Z"/><path class="cls-1" d="M15.81,4l1.12-3H16V.46h1.6V.77l-1.13,3h1.06v.46h-1.7Z"/></g></g></svg>